<svg xmlns="http://www.w3.org/2000/svg" xmlns:xlink="http://www.w3.org/1999/xlink" version="1.1" width="147px" height="146px" viewBox="-0.5 -0.5 147 146"><defs/><g><rect x="3" y="2" width="40" height="40" fill="none" stroke="#788aa3" pointer-events="all"/><rect x="53" y="2" width="40" height="40" fill="none" stroke="#788aa3" pointer-events="all"/><rect x="103" y="2" width="40" height="40" fill="none" stroke="#788aa3" pointer-events="all"/><rect x="3" y="52" width="40" height="40" fill="none" stroke="#788aa3" pointer-events="all"/><rect x="53" y="52" width="40" height="40" fill="#b2c9ab" stroke="#788aa3" stroke-width="2" pointer-events="all"/><rect x="103" y="52" width="40" height="40" fill="none" stroke="#788aa3" pointer-events="all"/><rect x="3" y="102" width="40" height="40" fill="none" stroke="#788aa3" pointer-events="all"/><rect x="53" y="102" width="40" height="40" fill="none" stroke="#788aa3" pointer-events="all"/><rect x="103" y="102" width="40" height="40" fill="none" stroke="#788aa3" pointer-events="all"/><path d="M 96 49 L 112.5 32.5" fill="none" stroke="#788aa3" stroke-miterlimit="10" pointer-events="stroke"/><path d="M 116.21 28.79 L 113.73 36.22 L 112.5 32.5 L 108.78 31.27 Z" fill="#788aa3" stroke="#788aa3" stroke-miterlimit="10" pointer-events="all"/><path d="M 33.5 111.5 L 50 95" fill="none" stroke="#788aa3" stroke-miterlimit="10" pointer-events="stroke"/><path d="M 29.79 115.21 L 32.27 107.78 L 33.5 111.5 L 37.22 112.73 Z" fill="#788aa3" stroke="#788aa3" stroke-miterlimit="10" pointer-events="all"/><path d="M 35.37 72 L 50 72" fill="none" stroke="#788aa3" stroke-miterlimit="10" pointer-events="stroke"/><path d="M 30.12 72 L 37.12 68.5 L 35.37 72 L 37.12 75.5 Z" fill="#788aa3" stroke="#788aa3" stroke-miterlimit="10" pointer-events="all"/><path d="M 110.63 71.9 L 96 71.9" fill="none" stroke="#788aa3" stroke-miterlimit="10" pointer-events="stroke"/><path d="M 115.88 71.9 L 108.88 75.4 L 110.63 71.9 L 108.88 68.4 Z" fill="#788aa3" stroke="#788aa3" stroke-miterlimit="10" pointer-events="all"/><path d="M 50 49 L 34.39 32.61" fill="none" stroke="#788aa3" stroke-miterlimit="10" pointer-events="stroke"/><path d="M 30.77 28.81 L 38.13 31.46 L 34.39 32.61 L 33.06 36.29 Z" fill="#788aa3" stroke="#788aa3" stroke-miterlimit="10" pointer-events="all"/><path d="M 96 95 L 110.73 111.28" fill="none" stroke="#788aa3" stroke-miterlimit="10" pointer-events="stroke"/><path d="M 114.25 115.17 L 106.96 112.33 L 110.73 111.28 L 112.15 107.63 Z" fill="#788aa3" stroke="#788aa3" stroke-miterlimit="10" pointer-events="all"/><path d="M 72.9 35.37 L 72.9 49" fill="none" stroke="#788aa3" stroke-miterlimit="10" pointer-events="stroke"/><path d="M 72.9 30.12 L 76.4 37.12 L 72.9 35.37 L 69.4 37.12 Z" fill="#788aa3" stroke="#788aa3" stroke-miterlimit="10" pointer-events="all"/><path d="M 72.9 108.63 L 72.9 95" fill="none" stroke="#788aa3" stroke-miterlimit="10" pointer-events="stroke"/><path d="M 72.9 113.88 L 69.4 106.88 L 72.9 108.63 L 76.4 106.88 Z" fill="#788aa3" stroke="#788aa3" stroke-miterlimit="10" pointer-events="all"/></g></svg>